HIERARCHY
ROOT Hips
{
  OFFSET 13.6774 106.653 -34.4427
  CHANNELS 6 Xposition Yposition Zposition Zrotation Xrotation Yrotation
  JOINT ToSpine
  {
    OFFSET -2.69724 7.43032 -0.144315
    CHANNELS 3 Zrotation Xrotation Yrotation
    JOINT Spine
    {
      OFFSET -0.0310711 10.7595 1.96963
      CHANNELS 3 Zrotation Xrotation Yrotation
      JOINT Spine1
      {
        OFFSET 19.9056 3.91189 0.764692
        CHANNELS 3 Zrotation Xrotation Yrotation
        JOINT Neck
        {
          OFFSET 25.9749 7.03908 -0.130764
          CHANNELS 3 Zrotation Xrotation Yrotation
          JOINT Head
          {
            OFFSET 9.52751 0.295786 -0.907742
            CHANNELS 3 Zrotation Xrotation Yrotation
            End Site
            {
              OFFSET 16.4037 0.713936 2.7358
            }
          }
        }
        JOINT LeftShoulder
        {
          OFFSET 17.7449 4.33886 11.7777
          CHANNELS 3 Zrotation Xrotation Yrotation
          JOINT LeftArm
          {
            OFFSET 0.911315 1.27913 9.80584
            CHANNELS 3 Zrotation Xrotation Yrotation
            JOINT LeftForeArm
            {
              OFFSET 28.6126 1.18197 -3.53199
              CHANNELS 3 Zrotation Xrotation Yrotation
              JOINT LeftHand
              {
                OFFSET 27.5088 0.0218783 0.327423
                CHANNELS 3 Zrotation Xrotation Yrotation
                End Site
                {
                  OFFSET 18.6038 -0.000155887 0.382096
                }
              }
            }
          }
        }
        JOINT RightShoulder
        {
          OFFSET 17.1009 2.89543 -12.2328
          CHANNELS 3 Zrotation Xrotation Yrotation
          JOINT RightArm
          {
            OFFSET 1.4228 0.178766 -10.211
            CHANNELS 3 Zrotation Xrotation Yrotation
            JOINT RightForeArm
            {
              OFFSET 28.733 1.87905 2.64907
              CHANNELS 3 Zrotation Xrotation Yrotation
              JOINT RightHand
              {
                OFFSET 27.4588 0.290562 -0.101845
                CHANNELS 3 Zrotation Xrotation Yrotation
                End Site
                {
                  OFFSET 17.8396 -0.255518 -0.000602873
                }
              }
            }
          }
        }
      }
    }
  }
  JOINT LeftUpLeg
  {
    OFFSET -5.61296 -2.22332 -10.2353
    CHANNELS 3 Zrotation Xrotation Yrotation
    JOINT LeftLeg
    {
      OFFSET 2.56703 -44.7417 -7.93097
      CHANNELS 3 Zrotation Xrotation Yrotation
      JOINT LeftFoot
      {
        OFFSET 3.16933 -46.5642 -3.96578
        CHANNELS 3 Zrotation Xrotation Yrotation
        JOINT LeftToeBase
        {
          OFFSET 0.346054 -6.02161 12.8035
          CHANNELS 3 Zrotation Xrotation Yrotation
          End Site
          {
            OFFSET 0.134235 -1.35082 5.13018
          }
        }
      }
    }
  }
  JOINT RightUpLeg
  {
    OFFSET -5.7928 -1.72406 10.6446
    CHANNELS 3 Zrotation Xrotation Yrotation
    JOINT RightLeg
    {
      OFFSET -2.57161 -44.7178 -7.85259
      CHANNELS 3 Zrotation Xrotation Yrotation
      JOINT RightFoot
      {
        OFFSET -3.10148 -46.5936 -4.03391
        CHANNELS 3 Zrotation Xrotation Yrotation
        JOINT RightToeBase
        {
          OFFSET -0.0828122 -6.13587 12.8035
          CHANNELS 3 Zrotation Xrotation Yrotation
          End Site
          {
            OFFSET -0.131328 -1.35082 5.13018
          }
        }
      }
    }
  }
}
MOTION
Frames: 15
Frame Time: 0.03333333333333333
0.0000 93.1000 0.0000 -63.3074 -38.2764 -163.2381 -71.0770 0.0709 87.9464 89.5196 75.8661 -0.2814 4.5041 30.0285 -5.4920 -131.4724 21.3284 -162.5641 -151.9308 55.4684 -175.7744 0.0218 -14.0673 -21.6302 -128.5078 37.8591 -78.9437 18.8995 -16.5661 -127.2641 0.0617 -0.2758 0.5828 -2.0061 8.7507 27.0791 -55.0732 -34.1263 154.2061 6.3817 2.1967 110.3640 -0.0235 0.4193 -0.2751 -36.4772 16.3057 94.0967 -4.0338 41.5617 -10.1528 -1.9745 -5.7037 -0.7748 3.0662 -9.9675 7.0012 -53.6551 -14.2590 78.6225 -0.4475 29.6885 4.7871 -4.2895 -9.6223 0.7189 1.5335 -16.8287 -5.7727 
0.0000 93.1000 0.0000 -63.5088 -39.2104 -161.6965 -71.0775 0.0278 87.9509 88.8338 75.5497 0.7916 4.9722 29.2720 -5.9805 -130.5103 20.8427 -164.5625 -149.5473 54.9098 -175.7750 0.2462 -13.8097 -21.3350 -128.2759 38.0484 -79.0782 19.3587 -16.8883 -126.9952 0.1964 -0.5155 0.4479 -1.9764 8.9917 26.7638 -54.8968 -34.0438 154.5461 7.4902 2.5445 109.7634 0.3459 0.1960 -0.0292 -38.1277 16.4905 93.1955 -3.3370 38.6173 -10.6335 -3.2076 -3.6044 -0.2921 2.4687 -9.2614 7.5371 -53.7770 -13.6871 78.1052 -0.4622 30.4710 5.9214 -2.5953 -9.5618 0.4363 1.4072 -16.2173 -5.0491 
0.0000 93.1000 0.0000 -63.0321 -39.8461 -162.1893 -71.0723 0.1217 87.9360 87.2219 75.1674 1.6060 5.4863 29.0967 -6.7285 -130.8101 20.4855 -166.7395 -151.2833 54.4377 -175.6291 -0.2452 -13.7409 -20.8306 -129.3399 37.7711 -77.8211 18.8501 -16.4844 -126.3325 0.1622 -0.0115 0.1461 -1.9853 8.7266 26.8571 -54.9796 -34.7836 154.6047 7.3397 2.4830 109.0273 -0.1014 0.7453 -0.3268 -38.6620 17.0911 93.8365 -3.0193 35.2447 -10.5305 -4.3646 -2.2139 -0.5309 1.7507 -7.5645 7.9143 -53.9460 -12.9914 77.8680 -0.1180 30.3351 8.1993 -2.4745 -9.8452 0.8673 2.1915 -16.1439 -4.3283 
0.0000 93.1000 0.0000 -61.9765 -40.9770 -160.4331 -71.0580 0.0785 87.9244 87.5768 74.9005 1.1325 4.9401 29.0091 -6.6966 -128.0262 20.5370 -167.7261 -145.1897 54.2027 -178.2809 -0.1039 -14.0096 -20.8723 -129.5345 37.3602 -78.0110 18.9743 -16.4366 -126.5257 -0.0767 -0.2134 0.2614 -2.1340 8.3613 26.9344 -56.0511 -34.7209 154.0430 6.6241 2.5283 109.6987 -0.2038 0.5613 0.0240 -38.4536 17.0671 94.8281 -3.3780 34.3140 -8.7828 -5.2716 -2.1320 -0.2858 0.4362 -5.3097 9.4596 -54.7201 -11.9979 78.1715 0.2966 29.5657 7.3111 -1.8446 -11.9491 1.0140 1.5833 -13.7806 -4.1278 
0.0000 93.1000 0.0000 -62.0824 -42.8611 -160.0993 -71.0508 0.0410 87.9158 88.3264 73.9306 0.2433 4.9696 28.2166 -5.9947 -129.5014 20.9485 -167.8251 -147.7302 54.1477 -177.9104 0.0270 -14.2591 -21.6786 -129.6983 36.6768 -77.0369 19.1757 -16.0911 -126.6645 -0.3672 -0.3715 0.3757 -2.1209 8.2940 26.2650 -55.6507 -35.9365 154.0043 6.7871 2.3624 109.1347 -0.0414 0.3499 -0.0116 -38.6584 17.5719 97.7796 -3.0840 34.7395 -11.2505 -5.5675 -2.3499 -0.0921 0.0949 -4.6868 10.9825 -55.1808 -10.8384 78.0555 -0.4476 29.7406 3.0105 -1.9120 -13.3942 0.9547 1.1064 -11.9335 -2.9509 
0.0000 93.1000 0.0000 -62.4469 -44.2650 -159.2147 -71.0391 0.0149 87.9097 90.9387 74.1067 -1.7776 4.3855 28.2188 -5.8120 -129.8590 21.1595 -166.8803 -149.2225 54.2037 -175.1293 0.1576 -14.2819 -22.1884 -130.0601 36.3140 -76.8751 18.6040 -15.1781 -125.9722 -0.6743 -0.4483 0.7514 -2.1633 8.1697 26.1724 -55.6467 -35.3546 154.1168 6.3514 2.0407 109.0556 0.0193 0.1928 -0.1090 -38.4084 16.9178 99.3297 -3.2779 36.4649 -9.8501 -5.2705 -3.7183 -0.0871 -0.2962 -2.9996 8.2106 -55.1648 -10.2428 78.2411 0.5564 31.4076 3.7519 -1.3480 -14.7965 0.9303 0.8058 -9.9002 -3.4177 
0.0000 93.1000 0.0000 -62.3386 -44.3919 -160.0499 -71.0451 -0.0011 87.9237 91.3555 74.0550 -2.5170 4.3115 28.0675 -5.7017 -129.9959 21.3848 -166.9941 -150.8559 54.4345 -174.4305 0.2583 -14.3370 -23.0280 -130.4353 35.3522 -75.6712 18.7027 -15.4751 -125.8683 -1.0549 -0.5242 0.7889 -2.0271 8.3780 25.7340 -55.2886 -35.4624 153.9515 7.1406 2.3064 109.0235 0.2235 0.0942 -0.0799 -39.4033 16.4372 100.1691 -3.4470 35.5439 -7.5435 -4.3105 -2.6116 -0.0726 -0.0816 -2.8496 6.6046 -54.7296 -10.1741 79.6780 -0.7520 32.8760 3.2608 -2.4835 -14.6805 1.0541 0.7966 -9.7684 -4.5209 
0.0000 93.1000 0.0000 -63.5890 -44.0248 -160.9849 -71.0611 -0.0460 87.9439 90.4272 74.2441 -0.9503 4.5672 27.6257 -6.0753 -130.8356 21.3353 -164.8552 -153.0193 54.6518 -174.0102 0.4900 -14.1363 -23.1702 -130.6074 34.6384 -74.3593 18.7759 -15.7779 -125.9612 -1.1736 -0.7467 0.9591 -1.8996 8.5726 25.2184 -54.6009 -35.6407 154.6379 6.7711 2.1477 108.8123 0.4326 -0.1579 -0.0238 -40.6248 16.0472 101.3052 -2.8307 33.6644 -5.8490 -3.3169 -1.1685 0.0828 -0.1010 -2.3095 3.8780 -54.6972 -10.1281 80.1421 0.4830 33.2133 2.1258 -2.8403 -15.3470 0.9899 0.6471 -9.2700 -4.7193 
0.0000 93.1000 0.0000 -63.6679 -44.0068 -160.4660 -71.0725 0.0111 87.9393 89.8343 74.4433 0.6398 5.0666 27.8272 -6.4646 -129.9713 21.0522 -165.2130 -150.4707 54.1243 -174.0721 0.2198 -14.1433 -23.4596 -130.7193 34.6984 -73.0376 19.7213 -16.6467 -125.3688 -0.6841 -0.5007 0.5450 -1.8077 9.0889 25.1770 -54.5194 -36.0209 154.0735 6.8522 1.9867 108.6019 0.2914 0.1827 -0.2168 -41.6300 16.1033 102.3171 -1.3892 32.4743 -4.9890 -3.5677 -0.9226 -0.1835 -0.3607 -2.5585 1.7548 -54.1654 -10.0678 80.1343 0.4324 34.1867 2.3497 -2.5371 -15.9767 1.1890 0.7750 -9.7227 -4.8750 
0.0000 93.1000 0.0000 -64.2450 -43.8502 -162.7924 -71.0735 -0.0233 87.9305 89.9079 74.3890 1.1241 4.7663 28.0202 -6.0380 -130.4301 20.9612 -165.1407 -153.1234 53.8405 -174.9446 0.4040 -13.9315 -23.6352 -131.1093 34.3429 -72.2048 20.8088 -17.8236 -125.6974 -0.3164 -0.7345 0.4734 -1.8051 8.9540 25.2378 -53.7565 -36.2045 154.8677 7.2711 2.2860 108.7820 0.4365 -0.0150 -0.0669 -42.5839 15.8985 101.5223 -1.9588 30.6916 -5.2018 -4.4314 -1.5214 0.0577 0.4316 -2.7528 -0.6163 -53.5392 -9.9906 79.6320 -0.3531 34.5818 3.2099 -3.8651 -16.0112 1.2351 1.2912 -10.6190 -5.7647 
0.0000 93.1000 0.0000 -64.1114 -43.1517 -163.5599 -71.0905 -0.0695 87.9433 89.7264 73.9863 1.2675 4.5579 27.9080 -6.1674 -130.5532 20.9141 -164.8261 -152.1549 53.8920 -173.5744 0.5470 -13.9956 -23.7471 -132.4443 33.2958 -71.4220 20.3110 -16.5710 -125.3251 -0.2212 -0.9841 0.6066 -1.7706 9.2641 25.1154 -52.9114 -35.8598 156.2201 7.6738 2.3705 108.7172 0.4905 -0.2837 0.0509 -43.4466 15.1011 101.0774 -2.8320 28.9144 -4.1873 -3.7404 -1.1642 0.1758 0.6123 -2.4223 -0.3565 -53.3477 -9.8372 80.7070 0.5454 35.0940 1.8385 -3.8537 -16.0225 1.0671 1.1297 -10.1024 -6.8976 
0.0000 93.1000 0.0000 -64.2802 -43.4127 -163.9815 -71.0853 0.0055 87.9389 88.7797 74.1791 2.0734 4.8093 27.6794 -5.8700 -130.2552 21.0654 -163.3041 -153.6944 53.8243 -173.3115 0.1342 -14.2298 -24.1555 -132.7743 33.0789 -70.8172 18.8542 -15.5737 -125.7363 0.2760 -0.6011 0.2335 -1.7456 9.1850 25.0492 -53.5730 -35.5399 155.3897 7.2120 2.0540 109.2240 -0.0639 0.1868 0.1509 -43.9089 14.8632 100.5726 -1.2887 28.2150 -4.0284 -4.1724 0.0674 -0.0785 0.9905 -2.7874 -1.5984 -53.2428 -9.9075 81.4182 -0.5297 35.2254 2.6673 -3.3764 -16.4561 1.2735 1.5712 -10.1358 -6.4039 
0.0000 93.1000 0.0000 -64.4967 -43.6074 -164.6441 -71.0863 0.0219 87.9404 88.5380 74.1533 2.4392 4.9195 27.7266 -5.9681 -130.0779 20.9791 -164.9444 -152.5575 53.7808 -173.3639 0.0270 -14.0329 -24.3808 -132.5149 33.2767 -70.9436 18.2634 -15.3975 -125.5065 0.0854 -0.5092 0.2486 -1.8095 9.0661 25.2586 -53.1484 -35.9302 155.0828 7.4964 2.2425 108.9571 0.0683 0.3303 0.4093 -44.2091 14.4763 100.2577 -2.0785 28.0083 -1.8589 -3.8127 0.9825 -0.2166 1.2817 -2.5101 -2.3252 -53.4691 -10.1988 81.1762 0.6320 35.2709 3.5159 -2.7952 -16.3862 1.2299 0.8034 -9.8149 -5.5448 
0.0000 93.1000 0.0000 -64.9097 -43.5860 -165.2103 -71.1019 0.0452 87.9458 88.2567 74.2591 3.2129 4.9230 27.5970 -6.1420 -129.1404 20.4571 -164.1997 -151.3165 53.8814 -173.8108 -0.1754 -14.2056 -24.4160 -132.9203 33.2762 -70.9977 19.2760 -15.1589 -125.1003 0.0405 -0.4204 0.0452 -1.8047 8.9955 25.0147 -53.5261 -35.9814 154.6068 6.9839 2.3761 109.1251 0.0798 0.4639 0.2137 -44.2553 14.9082 100.0242 -2.2129 27.0501 -1.6695 -3.4925 1.3479 -0.2044 0.6810 -2.6258 -1.8939 -53.7831 -9.9551 81.5485 -1.0078 35.2859 0.9415 -3.2835 -16.3641 1.3011 0.5389 -10.0953 -6.0503 
0.0000 93.1000 0.0000 -64.9161 -43.7149 -163.5226 -71.1066 -0.0008 87.9463 86.8411 74.1759 3.9467 5.0999 27.8877 -6.5330 -129.6148 20.3436 -165.6770 -152.1116 53.6609 -173.5057 0.0767 -13.8221 -24.3403 -132.6819 33.9825 -72.2432 19.3385 -15.3859 -124.7623 0.1166 -0.6685 0.0699 -1.8235 9.0093 25.2854 -53.4414 -35.8805 154.6169 6.9029 2.0531 109.1999 -0.0243 0.1842 0.1017 -44.3185 14.6297 100.0536 -1.8485 27.1303 -1.7243 -4.1264 1.3470 0.1214 0.3446 -2.4465 -1.8901 -53.6420 -10.1701 81.4304 -0.6109 35.6364 1.6473 -3.1294 -16.6091 1.0208 1.2407 -10.1363 -6.3035 
